<mxfile host="Electron" modified="2023-12-05T01:14:43.751Z" agent="Mozilla/5.0 (X11; Linux x86_64) AppleWebKit/537.36 (KHTML, like Gecko) draw.io/22.1.2 Chrome/114.0.5735.289 Electron/25.9.4 Safari/537.36" etag="BY-svm-5TrXCborahpca" version="22.1.2" type="device">
  <diagram name="Page-1" id="IvE3KfiU47k-LxmwesVg">
    <mxGraphModel dx="1070" dy="795" grid="1" gridSize="10" guides="1" tooltips="1" connect="1" arrows="1" fold="1" page="1" pageScale="1" pageWidth="850" pageHeight="1100" math="0" shadow="0">
      <root>
        <mxCell id="0" />
        <mxCell id="1" parent="0" />
        <mxCell id="kjLpONvJvTql1Vu8pVkB-1" style="edgeStyle=orthogonalEdgeStyle;rounded=0;orthogonalLoop=1;jettySize=auto;html=1;exitX=1;exitY=0.5;exitDx=0;exitDy=0;" edge="1" parent="1" source="kjLpONvJvTql1Vu8pVkB-2" target="kjLpONvJvTql1Vu8pVkB-3">
          <mxGeometry relative="1" as="geometry" />
        </mxCell>
        <mxCell id="kjLpONvJvTql1Vu8pVkB-2" value="" style="ellipse;html=1;shape=endState;fillColor=#000000;strokeColor=none;" vertex="1" parent="1">
          <mxGeometry x="90" y="295" width="30" height="30" as="geometry" />
        </mxCell>
        <mxCell id="kjLpONvJvTql1Vu8pVkB-3" value="State" style="rounded=0;whiteSpace=wrap;html=1;" vertex="1" parent="1">
          <mxGeometry x="180" y="280" width="120" height="60" as="geometry" />
        </mxCell>
        <mxCell id="kjLpONvJvTql1Vu8pVkB-4" value="Start" style="text;html=1;align=center;verticalAlign=middle;resizable=0;points=[];autosize=1;strokeColor=none;fillColor=none;" vertex="1" parent="1">
          <mxGeometry x="80" y="325" width="50" height="30" as="geometry" />
        </mxCell>
        <mxCell id="kjLpONvJvTql1Vu8pVkB-5" value="" style="ellipse;html=1;shape=endState;fillColor=#000000;strokeColor=#000000;" vertex="1" parent="1">
          <mxGeometry x="360" y="295" width="30" height="30" as="geometry" />
        </mxCell>
        <mxCell id="kjLpONvJvTql1Vu8pVkB-6" value="Finish" style="text;html=1;align=center;verticalAlign=middle;resizable=0;points=[];autosize=1;strokeColor=none;fillColor=none;" vertex="1" parent="1">
          <mxGeometry x="345" y="325" width="60" height="30" as="geometry" />
        </mxCell>
      </root>
    </mxGraphModel>
  </diagram>
</mxfile>
